<svg width="512" height="512" viewBox="0 0 64 64" fill="none" xmlns="http://www.w3.org/2000/svg">
  <defs>
    <linearGradient id="bg" x1="0%" y1="0%" x2="100%" y2="100%">
      <stop offset="0%" style="stop-color:#115E59"/>
      <stop offset="50%" style="stop-color:#0F766E"/>
      <stop offset="100%" style="stop-color:#14B8A6"/>
    </linearGradient>
    <radialGradient id="mesh">
      <stop offset="0%" style="stop-color:#5EEAD4;stop-opacity:0.3"/>
      <stop offset="100%" style="stop-color:#0F766E;stop-opacity:0"/>
    </radialGradient>
    <linearGradient id="paper" x1="0%" y1="0%" x2="0%" y2="100%">
      <stop offset="0%" style="stop-color:#FFFFFF"/>
      <stop offset="100%" style="stop-color:#F0FDFA"/>
    </linearGradient>
  </defs>

  <rect width="64" height="64" rx="20" fill="url(#bg)"/>
  <rect width="64" height="64" rx="20" fill="url(#mesh)"/>

  <path d="M14 24 C14 21.7909 15.7909 20 18 20 L46 20 C48.2091 20 50 21.7909 50 24 L50 42 C50 44.2091 48.2091 46 46 46 L18 46 C15.7909 46 14 44.2091 14 42 Z" fill="url(#paper)"/>
  <path d="M14 24 L32 36 L50 24" stroke="#0F766E" stroke-width="3" stroke-linecap="round" stroke-linejoin="round" fill="none" opacity="0.85"/>
  <path d="M20 42 L32 34 L44 42" stroke="#14B8A6" stroke-width="2" stroke-linecap="round" stroke-linejoin="round" fill="none" opacity="0.3"/>

  <circle cx="32" cy="38" r="6" fill="#14B8A6" opacity="0.15"/>
  <text x="32" y="41" font-family="system-ui, sans-serif" font-weight="700" font-size="8" fill="#0F766E" text-anchor="middle">D</text>

  <circle cx="50" cy="16" r="6" fill="#F59E0B"/>
  <circle cx="50" cy="16" r="4" fill="#FCD34D"/>
  <circle cx="51" cy="15" r="1.5" fill="#FEF9C3"/>
</svg>
